<svg width="13" height="13" viewBox="0 0 13 13" fill="none" xmlns="http://www.w3.org/2000/svg">
<path d="M5.19531 1.31836C4.92188 1.5918 4.94922 2.00195 5.19531 2.27539L8.50391 5.39258H0.65625C0.273438 5.39258 0 5.69336 0 6.04883V6.92383C0 7.30664 0.273438 7.58008 0.65625 7.58008H8.50391L5.19531 10.7246C4.94922 10.998 4.94922 11.4082 5.19531 11.6816L5.79688 12.2832C6.07031 12.5293 6.48047 12.5293 6.72656 12.2832L12.0586 6.95117C12.3047 6.70508 12.3047 6.29492 12.0586 6.02148L6.72656 0.716797C6.48047 0.470703 6.07031 0.470703 5.79688 0.716797L5.19531 1.31836Z" fill="#1565D8"/>
</svg>
