<svg width="91" height="28" viewBox="0 0 91 28" fill="none" xmlns="http://www.w3.org/2000/svg">
<path fill-rule="evenodd" clip-rule="evenodd" d="M22.0365 0.96875V21.4531C22.0365 21.724 22.1273 21.9505 22.3088 22.1328C22.4903 22.3151 22.7159 22.4062 22.9856 22.4062H26.471C26.7407 22.4062 26.9663 22.3151 27.1478 22.1328C27.3293 21.9505 27.4201 21.724 27.4201 21.4531V12.056C28.9035 10.5664 30.2934 9.23438 31.5901 9.23438C33.5713 9.23438 34.5619 9.99478 34.5619 12.4844V21.4531C34.5619 21.724 34.6527 21.9505 34.8342 22.1328C35.0158 22.3151 35.2414 22.4062 35.5111 22.4062H38.9809C39.2609 22.4062 39.4917 22.3151 39.6732 22.1328C39.8548 21.9505 39.9455 21.724 39.9455 21.4531V12.4844C39.9455 9.9427 39.3128 8.05469 38.0473 6.82031C36.7818 5.58593 35.1402 4.96875 33.1227 4.96875C31.1051 4.96875 29.2043 5.72395 27.4201 7.23438V0.96875C27.4201 0.687499 27.3293 0.45573 27.1478 0.273438C26.9663 0.0911449 26.7407 0 26.471 0H22.9856C22.7159 0 22.4903 0.0911449 22.3088 0.273438C22.1273 0.45573 22.0365 0.687499 22.0365 0.96875ZM3.39617 20.4375C1.79872 18.9167 1 16.7266 1 13.8672C1 11.0078 1.8039 8.8099 3.41173 7.27344C5.01956 5.73697 7.24974 4.96875 10.1023 4.96875C12.9549 4.96875 15.1799 5.71614 16.7774 7.21094C18.3748 8.70574 19.1735 10.8489 19.1735 13.6406V14.5312C19.1735 14.8125 19.0828 15.0443 18.9013 15.2266C18.7197 15.4089 18.4889 15.5 18.2089 15.5H6.49252C6.59625 16.7813 6.9619 17.7135 7.58947 18.2969C8.21704 18.8802 9.22062 19.1719 10.6002 19.1719C11.9799 19.1719 12.9238 18.8594 13.4321 18.2344C13.9404 17.6094 14.9142 17.705 16.4164 17.9157C17.9186 18.1263 18.2575 18.9209 18.2089 19.1719C17.7323 21.6328 15.2357 22.7282 10.0868 22.7188C7.2238 22.7188 4.99362 21.9583 3.39617 20.4375ZM6.4614 12.2031H13.6966C13.5929 9.74478 12.3922 8.51562 10.0946 8.51562C7.79692 8.51562 6.58588 9.74478 6.4614 12.2031ZM46.7762 24.0312L48.8145 24.2969C50.0526 24.2969 50.9748 23.5243 51.581 21.9793C51.592 21.9514 51.5033 21.937 51.3389 21.9102C50.7121 21.8082 48.9841 21.5271 47.4764 19.6383C45.7481 17.4732 45.4913 16.6374 44.8218 14.4584L44.8213 14.457C44.7537 14.2368 44.6818 14.003 44.6038 13.7527L42.2854 6.2058C42.2543 6.12247 42.2387 6.02612 42.2387 5.91674C42.2387 5.80736 42.3036 5.67455 42.4332 5.5183C42.5629 5.36205 42.7574 5.27872 43.0167 5.2683L46.076 5.28125C46.3768 5.28125 46.6647 5.38281 46.9396 5.58594C47.2144 5.78906 47.3934 6.04167 47.4764 6.34375L49.5147 12.9688C50.0229 14.5938 50.539 15.7187 51.0628 16.3438C51.5867 16.9688 52.2065 17.2812 52.9222 17.2812L56.0186 6.34375C56.1015 6.04167 56.2649 5.78906 56.5087 5.58594C56.7524 5.38281 57.0247 5.28125 57.3256 5.28125H60.6086C60.8679 5.28125 61.0598 5.36458 61.1843 5.53125C61.3088 5.69792 61.371 5.83594 61.371 5.94531C61.371 6.05469 61.3607 6.14583 61.3399 6.21875L57.2633 20.8125C56.5372 23.3958 55.6373 25.2396 54.5637 26.3438C53.4901 27.4479 52.1079 28 50.4171 28L49.7672 27.9967C48.4163 27.9822 47.4375 27.9208 46.8306 27.8125C46.1305 27.6875 45.6922 27.5339 45.5159 27.3516C45.3395 27.1693 45.2513 26.9583 45.2513 26.7188V25C45.2513 24.7187 45.3395 24.487 45.5159 24.3047C45.6922 24.1224 45.9204 24.0312 46.2005 24.0312H46.7762ZM63.1448 21.2812C61.7756 20.3229 61.091 18.9688 61.091 17.2188C61.091 15.4688 61.7782 14.125 63.1526 13.1875C64.527 12.25 66.2982 11.7812 68.4662 11.7812H73.6164C73.6164 10.5625 73.3623 9.71354 72.854 9.23438C72.3457 8.75521 71.4562 8.51562 70.1855 8.51562C68.9995 8.51562 68.1434 8.79011 67.617 9.3391L67.5093 9.46094C66.9958 10.0911 65.3795 9.87688 63.9365 9.59891C62.4935 9.32095 62.4001 8.5848 62.5289 8.2017C63.2533 6.04639 66.0155 4.96875 70.8157 4.96875C73.2845 4.96875 75.2657 5.52343 76.7594 6.63281C78.2532 7.74219 79 9.45832 79 11.7812V21.4531C79 21.7344 78.9118 21.9635 78.7355 22.1406C78.5591 22.3177 78.3309 22.4062 78.0509 22.4062H75.0479C74.7678 22.4062 74.5396 22.3151 74.3633 22.1328C74.1869 21.9505 74.0987 21.724 74.0987 21.4531V20.9688C72.4598 22.1458 70.5693 22.7318 68.4273 22.7266C66.2852 22.7214 64.5244 22.2396 63.1448 21.2812ZM68.8396 15.3281H73.6164V17.7656C72.133 18.7031 70.5927 19.1719 68.9952 19.1719C68.1965 19.1719 67.5793 18.9896 67.1436 18.625C66.708 18.2604 66.4901 17.7969 66.4901 17.2344C66.4901 16.6719 66.7002 16.2135 67.1203 15.8594C67.5404 15.5052 68.1135 15.3281 68.8396 15.3281Z" fill="url(#paint0_linear)"/>
<path fill-rule="evenodd" clip-rule="evenodd" d="M87 14C89.2091 14 91 12.2091 91 10C91 7.79086 89.2091 6 87 6C84.7909 6 83 7.79086 83 10C83 12.2091 84.7909 14 87 14Z" fill="#1576D8"/>
<defs>
<linearGradient id="paint0_linear" x1="1" y1="0" x2="1" y2="28" gradientUnits="userSpaceOnUse">
<stop stop-color="#254A72"/>
<stop offset="1" stop-color="#10243E"/>
</linearGradient>
</defs>
</svg>
